<svg xmlns="http://www.w3.org/2000/svg" viewBox="0 0 64.4 64.4"><defs><style>.cls-1{fill:#ca4f60;}</style></defs><title>Asset 1</title><g id="Layer_2" data-name="Layer 2"><g id="Layer_1-2" data-name="Layer 1"><path class="cls-1" d="M48.45,51c-.08-1.51,0-3,0-4.55,0-2,0-4,0-6.07a1.82,1.82,0,0,1,.82-1.74A46.57,46.57,0,0,0,56,33.15a26.49,26.49,0,0,0,8-15.26,57.59,57.59,0,0,0,0-14.37,3.7,3.7,0,0,0-.85-2.19A3.7,3.7,0,0,0,60.88.48a57.59,57.59,0,0,0-14.37,0,26.55,26.55,0,0,0-15.26,8,47.11,47.11,0,0,0-5.48,6.73A1.8,1.8,0,0,1,24,16C22,16,20,16,18,16c-1.52,0-3,.07-4.55,0-3.74-.21-6,1.69-7.57,4.89C4,24.7,2.09,28.52.19,32.36c-.82,1.66,1.08,4,3.39,4.06,3.22.06,6.45,0,9.67,0,1.6,0,1.87.51,1.05,1.87-.19.32-.49.57-.65.89-1.36,2.66-1.08,3.78,1.59,6.35.61.59,1.24,1.17,1.87,1.74s1.15,1.26,1.74,1.87c2.57,2.67,3.69,3,6.35,1.59.32-.16.57-.46.89-.65,1.36-.82,1.86-.55,1.87,1,0,3.23,0,6.45,0,9.67,0,2.31,2.41,4.21,4.07,3.39,3.83-1.9,7.65-3.81,11.51-5.65C46.76,57,48.66,54.73,48.45,51Zm2.06-31.27a6,6,0,0,1-4.25-1.58A6.05,6.05,0,0,1,50.73,8,5.91,5.91,0,0,1,54.8,9.6a5.91,5.91,0,0,1,1.59,4.07A6.07,6.07,0,0,1,50.51,19.72Z"/></g></g></svg>